<?xml version="1.0" standalone="no"?>
<!DOCTYPE svg PUBLIC "-//W3C//DTD SVG 20010904//EN"
 "http://www.w3.org/TR/2001/REC-SVG-20010904/DTD/svg10.dtd">
<svg version="1.0" xmlns="http://www.w3.org/2000/svg"
 width="700.000000pt" height="700.000000pt" viewBox="0 0 700.000000 700.000000"
 preserveAspectRatio="xMidYMid meet">
<metadata>
Created by potrace 1.11, written by Peter Selinger 2001-2013
</metadata>
<g transform="translate(0.000000,700.000000) scale(0.100000,-0.100000)"
fill="#000000" stroke="none">
<path d="M1953 6756 c-132 -33 -259 -127 -321 -238 -54 -94 -74 -169 -75 -278
0 -54 28 -407 38 -470 2 -14 11 -83 20 -155 8 -71 20 -152 25 -180 5 -27 12
-63 14 -80 20 -131 42 -249 66 -355 45 -198 45 -206 14 -280 -51 -124 -112
-351 -129 -476 -2 -21 -8 -61 -12 -89 -9 -65 -9 -272 0 -355 28 -254 116 -488
269 -717 27 -40 45 -73 40 -73 -5 0 -49 -25 -98 -56 -98 -62 -108 -63 -229
-30 -525 141 -925 546 -1050 1061 -34 142 -43 221 -40 375 3 144 7 187 31 290
54 235 154 437 309 625 71 86 88 124 87 195 0 92 -47 171 -126 213 -63 33
-166 31 -228 -6 -26 -15 -53 -35 -60 -46 -7 -10 -32 -40 -55 -67 -55 -64 -151
-204 -188 -274 -16 -30 -34 -62 -41 -70 -15 -20 -97 -219 -123 -300 -21 -67
-50 -182 -58 -235 -2 -16 -6 -41 -9 -55 -13 -81 -18 -162 -18 -300 0 -150 2
-186 23 -315 110 -680 596 -1263 1251 -1500 58 -21 106 -39 108 -40 1 -1 -11
-49 -27 -106 -16 -57 -33 -122 -37 -144 -11 -56 -13 -1576 -2 -1655 11 -85 47
-157 108 -219 201 -204 537 -132 641 137 20 52 22 78 25 292 1 129 3 243 3
254 1 16 6 17 34 12 106 -23 180 -28 427 -28 151 0 282 -2 290 -4 13 -3 15
-38 16 -231 1 -187 4 -237 18 -278 65 -189 256 -303 445 -264 139 28 239 115
294 254 18 44 21 79 24 284 1 129 4 235 5 236 2 2 37 5 78 9 87 7 115 12 191
32 31 7 61 14 66 14 6 0 10 -96 10 -232 0 -128 3 -253 6 -277 11 -69 59 -161
113 -214 221 -218 596 -102 654 202 6 33 10 299 10 682 0 592 1 632 20 711 23
96 33 176 34 270 1 38 5 68 11 68 84 -1 507 10 525 14 14 2 46 7 72 11 26 3
53 8 60 10 7 2 24 6 38 9 115 20 334 95 470 161 197 97 411 263 563 438 179
206 328 506 371 752 33 186 37 413 10 549 -5 27 -13 67 -19 109 -16 96 -73
289 -124 415 -12 30 -19 57 -17 61 3 4 8 23 11 42 3 19 19 93 35 164 16 72 31
148 35 170 6 45 6 41 35 215 12 69 23 145 26 170 2 25 6 59 9 75 2 17 7 53 10
80 3 28 8 64 10 80 2 17 7 66 10 110 3 44 8 100 11 125 3 25 7 100 9 168 3
135 -8 190 -60 292 -29 58 -154 190 -180 190 -8 0 -15 3 -15 8 0 10 -102 49
-160 61 -81 18 -176 6 -355 -44 -364 -101 -704 -220 -1025 -357 -164 -71 -188
-77 -245 -58 -16 5 -41 11 -55 14 -14 3 -50 10 -80 16 -30 6 -77 13 -105 16
-27 4 -53 8 -56 10 -30 17 -515 26 -659 11 -105 -10 -301 -43 -391 -65 -54
-13 -82 -16 -100 -9 -26 10 -39 16 -170 73 -305 132 -628 245 -999 349 -185
52 -297 64 -387 41z"/>
</g>
</svg>
